IKResults
version=1
nRows=11
nColumns=63
inDegrees=yes

Units are S.I. units (second, meters, Newtons, ...)
If the header above contains a line with 'inDegrees', this indicates whether rotational values are in degrees (yes) or radians (no).

endheader
time	pelvis_tilt	pelvis_list	pelvis_rotation	pelvis_tx	pelvis_ty	pelvis_tz	hip_flexion_r	hip_adduction_r	hip_rotation_r	knee_angle_r	knee_angle_r_beta	ankle_angle_r	subtalar_angle_r	mtp_angle_r	hip_flexion_l	hip_adduction_l	hip_rotation_l	knee_angle_l	knee_angle_l_beta	ankle_angle_l	subtalar_angle_l	mtp_angle_l	L5_S1_Flex_Ext	L5_S1_Lat_Bending	L5_S1_axial_rotation	L4_L5_Flex_Ext	L4_L5_Lat_Bending	L4_L5_axial_rotation	L3_L4_Flex_Ext	L3_L4_Lat_Bending	L3_L4_axial_rotation	L2_L3_Flex_Ext	L2_L3_Lat_Bending	L2_L3_axial_rotation	L1_L2_Flex_Ext	L1_L2_Lat_Bending	L1_L2_axial_rotation	L1_T12_Flex_Ext	L1_T12_Lat_Bending	L1_T12_axial_rotation	Abs_r3	Abs_r2	Abs_r1	Abs_t1	Abs_t2	neck_flexion	neck_bending	neck_rotation	arm_flex_r	arm_add_r	arm_rot_r	elbow_flex_r	pro_sup_r	wrist_flex_r	wrist_dev_r	arm_flex_l	arm_add_l	arm_rot_l	elbow_flex_l	pro_sup_l	wrist_flex_l	wrist_dev_l
      5.26666667	   -111.15362054	     42.82070703	     -9.74494218	     -0.31375338	      0.16963356	     -0.05435071	     11.40443870	     18.57026103	    -16.07984273	      0.27276977	      0.00476073	      0.00000000	      0.00000000	      0.00000000	     11.48980142	    -38.04100341	    -39.80209109	     12.90318002	      0.22520298	    -15.20661071	    -19.75599763	      0.00000000	      1.12193101	      1.73479836	      5.38188253	      2.08353807	      2.30728182	      5.71825019	      1.84322045	      4.21798873	      5.71825019	      1.28225495	      4.21798873	      4.70914722	      1.04182513	      3.53760081	      4.37277956	      0.64107138	      2.68720266	      4.03641190	      8.01384099	     19.62438598	     29.93241609	      0.00000000	      0.00000000	     14.43858393	     19.30300870	     34.05341731	   -373.90085436	    -74.21393484	   -400.97152638	     38.09612343	     89.99559364	      0.00000000	      0.00000000	     25.91246019	    -55.94555635	    -46.25056398	     46.44696265	     89.99559364	      0.00000000	      0.00000000
      5.30000000	   -111.44621969	     42.48716382	     -9.32601301	     -0.31333478	      0.16957130	     -0.05465838	     11.51971405	     18.94123143	    -16.08851707	      0.26650618	      0.00465141	      0.00000000	      0.00000000	      0.00000000	     11.90057238	    -38.38305169	    -39.80464387	     12.90216178	      0.22518520	    -14.96273376	    -19.75684718	      0.00000000	      1.16735153	      1.78040999	      5.33069406	      2.16788852	      2.36794529	      5.66386244	      1.91784182	      4.32888885	      5.66386244	      1.33416606	      4.32888885	      4.66435730	      1.08400263	      3.63061205	      4.33118892	      0.66702466	      2.75785507	      3.99802054	      8.33827522	     20.14035388	     29.64772114	      0.00000000	      0.00000000	     14.19181928	     18.98510159	     34.11785018	   -372.67371618	    -74.24592595	   -400.81121697	     37.62838723	     89.99559364	      0.00000000	      0.00000000	     25.64377652	    -55.73982472	    -46.63095349	     46.43265374	     89.99559364	      0.00000000	      0.00000000
      5.33333333	   -111.83344428	     42.30949698	     -8.78448928	     -0.31305384	      0.16938785	     -0.05506199	     11.72565463	     19.14934109	    -16.27414662	      0.26236663	      0.00457916	      0.00000000	      0.00000000	      0.00000000	     12.41603681	    -38.54370127	    -39.80847959	     12.85928891	      0.22443693	    -14.70237228	    -19.75984343	      0.00000000	      1.20534940	      1.81111936	      5.11912533	      2.23845438	      2.40878875	      5.43907066	      1.98026853	      4.40355561	      5.43907066	      1.37759383	      4.40355561	      4.47923466	      1.11928746	      3.69323459	      4.15928933	      0.68873665	      2.80542388	      3.83934399	      8.60969025	     20.48774440	     28.47103932	      0.00000000	      0.00000000	     13.62128987	     18.92951798	     35.26578522	   -366.52923230	    -74.59499456	   -395.11294863	     36.62723653	     89.99559364	      0.00000000	      0.00000000	     22.81286834	    -56.22722556	    -48.49077008	     47.12325090	     89.99559364	      0.00000000	      0.00000000
      5.36666667	   -111.87817572	     42.21861161	     -8.45135402	     -0.31272757	      0.16932995	     -0.05533018	     11.71118799	     19.23411743	    -16.26790179	      0.25939909	      0.00452737	      0.00000000	      0.00000000	      0.00000000	     12.69068448	    -38.58613686	    -39.81301850	     12.84875309	      0.22425305	    -14.34822536	    -19.76264450	      0.00000000	      1.21425238	      1.82172693	      5.08005191	      2.25498809	      2.42289682	      5.39755515	      1.99489523	      4.42934686	      5.39755515	      1.38776904	      4.42934686	      4.44504542	      1.12755476	      3.71486556	      4.12754218	      0.69382381	      2.82185502	      3.81003893	      8.67328331	     20.60773941	     28.25372470	      0.00000000	      0.00000000	     13.67214869	     18.71201436	     35.27790654	   -366.16759651	    -74.55694711	   -395.30696944	     36.36332104	     89.99559364	      0.00000000	      0.00000000	     22.94799581	    -56.09795128	    -48.43838376	     47.06253482	     89.99559364	      0.00000000	      0.00000000
      5.40000000	   -112.04978755	     42.02470167	     -8.07270285	     -0.31251621	      0.16916370	     -0.05558442	     11.76701317	     19.45382717	    -16.27151625	      0.25490817	      0.00444899	      0.00000000	      0.00000000	      0.00000000	     13.02968996	    -38.76467980	    -39.81718084	     12.83895013	      0.22408195	    -14.02706228	    -19.76787395	      0.00000000	      1.24569741	      1.84607108	      5.03753291	      2.31338467	      2.45527454	      5.35237871	      2.04655628	      4.48853722	      5.35237871	      1.42370757	      4.48853722	      4.40784129	      1.15675462	      3.76450814	      4.09299549	      0.71179150	      2.85956410	      3.77814968	      8.89789205	     20.88312526	     28.01724677	      0.00000000	      0.00000000	     13.60221426	     18.41202801	     35.19674275	   -365.37108272	    -74.42970277	   -395.60645820	     36.05449177	     89.99559364	      0.00000000	      0.00000000	     22.99309582	    -55.95411839	    -48.49904091	     46.94181802	     89.99559364	      0.00000000	      0.00000000
      5.43333333	   -112.03884579	     41.95929085	     -7.82166067	     -0.31232963	      0.16894290	     -0.05578178	     11.69735244	     19.50291719	    -16.26586409	      0.24866243	      0.00433998	      0.00000000	      0.00000000	      0.00000000	     13.19173288	    -38.77837637	    -39.82240349	     12.80405093	      0.22347285	    -13.63553600	    -19.77331315	      0.00000000	      1.24925432	      1.85259645	      5.00168477	      2.31999020	      2.46395328	      5.31429007	      2.05239992	      4.50440302	      5.31429007	      1.42777276	      4.50440302	      4.37647417	      1.16005756	      3.77781469	      4.06386888	      0.71382392	      2.86967191	      3.75126358	      8.92329868	     20.95694159	     27.81787019	      0.00000000	      0.00000000	     13.64067858	     18.31694455	     35.22784001	   -365.20540891	    -74.42069077	   -395.66464438	     35.91362831	     89.99559364	      0.00000000	      0.00000000	     23.04075256	    -55.88556843	    -48.48347892	     46.96284184	     89.99559364	      0.00000000	      0.00000000
      5.46666667	   -112.13714983	     41.80221164	     -7.42579200	     -0.31189932	      0.16881561	     -0.05611323	     11.79809925	     19.61026354	    -16.60275863	      0.24890714	      0.00434425	      0.00000000	      0.00000000	      0.00000000	     13.54500320	    -38.88643714	    -39.82505358	     12.78711739	      0.22317730	    -13.29937481	    -19.77581453	      0.00000000	      1.25308865	      1.87892595	      4.80592533	      2.32711093	      2.49897151	      5.10629566	      2.05869934	      4.56842055	      5.10629566	      1.43215501	      4.56842055	      4.20518466	      1.16361812	      3.83150579	      3.90481433	      0.71601485	      2.91045629	      3.60444400	      8.95068690	     21.25478610	     26.72911491	      0.00000000	      0.00000000	     13.29135303	     18.09030043	     36.00507501	   -359.17867653	    -74.34098908	   -391.24677783	     34.86651871	     89.99559364	      0.00000000	      0.00000000	     20.87010217	    -56.22139119	    -50.10739731	     47.35033855	     89.99559364	      0.00000000	      0.00000000
      5.50000000	   -112.11701654	     41.76043063	     -7.15149289	     -0.31146506	      0.16869852	     -0.05647337	     11.82312782	     19.57107005	    -16.59705666	      0.24815822	      0.00433118	      0.00000000	      0.00000000	      0.00000000	     13.74744999	    -38.85299777	    -39.82883914	     12.74797584	      0.22249415	    -12.90827706	    -19.77897108	      0.00000000	      1.25498059	      1.88478236	      4.76663444	      2.33062446	      2.50676053	      5.06454909	      2.06180762	      4.58265982	      5.06454909	      1.43431732	      4.58265982	      4.17080513	      1.16537498	      3.84344818	      3.87289048	      0.71709591	      2.91952787	      3.57497583	      8.96420089	     21.32103498	     26.51059074	      0.00000000	      0.00000000	     13.32892120	     17.95592839	     36.00509567	   -359.00107722	    -74.37385251	   -391.36828178	     34.68299804	     89.99559364	      0.00000000	      0.00000000	     20.98992961	    -56.11880890	    -50.05771501	     47.31784850	     89.99559364	      0.00000000	      0.00000000
      5.53333333	   -112.06960229	     41.74268912	     -7.00411432	     -0.31108019	      0.16882734	     -0.05667299	     11.86172747	     19.54654595	    -16.58884467	      0.24253070	      0.00423296	      0.00000000	      0.00000000	      0.00000000	     13.86088946	    -38.83530068	    -39.83235448	     12.72901299	      0.22216319	    -12.71529002	    -19.78640725	      0.00000000	      1.24706319	      1.88751696	      4.74507203	      2.31592106	      2.51039756	      5.04163903	      2.04880012	      4.58930875	      5.04163903	      1.42526852	      4.58930875	      4.15193803	      1.15802288	      3.84902459	      3.85537102	      0.71257191	      2.92376378	      3.55880402	      8.90764769	     21.35196941	     26.39066711	      0.00000000	      0.00000000	     13.33836481	     17.91409159	     35.99022858	   -358.92121365	    -74.41364522	   -391.41745158	     34.63749024	     89.99559364	      0.00000000	      0.00000000	     21.04666386	    -56.03825510	    -50.01895818	     47.32222760	     89.99559364	      0.00000000	      0.00000000
      5.56666667	   -112.03058753	     41.60967699	     -6.68093939	     -0.31004096	      0.16888501	     -0.05722707	     11.94228178	     19.50757966	    -16.58556935	      0.24873365	      0.00434122	      0.00000000	      0.00000000	      0.00000000	     14.11871557	    -38.83076494	    -39.83346276	     12.61979930	      0.22025705	    -12.38390082	    -19.78450714	      0.00000000	      1.24990420	      1.91011028	      4.69759322	      2.32119709	      2.54044667	      4.99119280	      2.05346761	      4.64424213	      4.99119280	      1.42851551	      4.64424213	      4.11039407	      1.16066104	      3.89509688	      3.81679449	      0.71419526	      2.95876082	      3.52319492	      8.92794073	     21.60754950	     26.12660423	      0.00000000	      0.00000000	     13.36574658	     17.47201113	     35.83496664	   -358.30495630	    -74.46431088	   -391.75773325	     34.19143906	     89.99559364	      0.00000000	      0.00000000	     21.34734154	    -55.72485177	    -50.00394130	     47.17113305	     89.99559364	      0.00000000	      0.00000000
      5.60000000	   -111.98540592	     41.61285127	     -6.56849752	     -0.30921585	      0.16930556	     -0.05763758	     12.07523076	     19.39437870	    -16.57573990	      0.25177134	      0.00439424	      0.00000000	      0.00000000	      0.00000000	     14.23529261	    -38.75451930	    -39.83663516	     12.57818985	      0.21953083	    -12.16730419	    -19.78989237	      0.00000000	      1.23673696	      1.91537306	      4.68255780	      2.29674421	      2.54744618	      4.97521766	      2.03183516	      4.65703807	      4.97521766	      1.41346667	      4.65703807	      4.09723808	      1.14843394	      3.90582875	      3.80457821	      0.70667150	      2.96691288	      3.51191835	      8.83388845	     21.66708318	     26.04298172	      0.00000000	      0.00000000	     13.37438503	     17.45595641	     35.78601772	   -358.17433226	    -74.59022194	   -391.82239807	     34.17162880	     89.99559364	      0.00000000	      0.00000000	     21.40028777	    -55.58174379	    -49.95905316	     47.18804258	     89.99559364	      0.00000000	      0.00000000
